<?xml version="1.0" standalone="no"?><!DOCTYPE svg PUBLIC "-//W3C//DTD SVG 1.1//EN" "http://www.w3.org/Graphics/SVG/1.1/DTD/svg11.dtd"><svg t="1621869258738" class="icon" viewBox="0 0 1024 1024" version="1.1" xmlns="http://www.w3.org/2000/svg" p-id="2606" xmlns:xlink="http://www.w3.org/1999/xlink" width="128" height="128"><defs><style type="text/css"></style></defs><path d="M924.16 346.24l-121.6-102.4V127.36c0-21.76-19.2-39.68-42.88-39.68h-24.96c-23.68 0-42.88 17.92-42.88 39.68v23.04L551.68 33.92c-23.04-19.2-56.32-19.2-78.72 0L99.84 346.24c-20.48 16.64-27.52 43.52-18.56 68.48 8.96 24.32 31.36 40.32 57.6 40.32h34.56v476.8c0 40.32 32.64 72.96 72.96 72.96h530.56c40.32 0 72.96-32.64 72.96-72.96V455.04h34.56c26.24 0 48.64-16 57.6-40.32 9.6-24.96 2.56-51.84-17.92-68.48zM741.76 134.4h10.24v67.2l-10.24-8.32V134.4z m57.6 797.44c0 12.16-9.6 21.76-21.76 21.76h-531.2c-12.16 0-21.76-9.6-21.76-21.76V455.04h574.72v476.8z m95.36-534.4a10.24 10.24 0 0 1-10.24 7.04H138.88c-6.4 0-8.96-4.48-10.24-7.04-0.64-3.2-1.28-7.68 3.84-12.16L505.6 72.96c3.84-3.2 9.6-3.2 14.08 0l373.12 312.32c3.84 4.48 3.2 8.96 1.92 12.16z" fill="#5F5F5F" p-id="2607"></path></svg>