<?xml version="1.0" standalone="no"?><!DOCTYPE svg PUBLIC "-//W3C//DTD SVG 1.1//EN" "http://www.w3.org/Graphics/SVG/1.1/DTD/svg11.dtd"><svg t="1621954477837" class="icon" viewBox="0 0 1024 1024" version="1.1" xmlns="http://www.w3.org/2000/svg" p-id="3740" xmlns:xlink="http://www.w3.org/1999/xlink" width="128" height="128"><defs><style type="text/css"></style></defs><path d="M990.2034485 797.03077888H249.79228405c-21.94242333 0-42.52558222-8.54395221-57.86585998-24.0784111-15.3402789-15.53445888-23.88423111-35.92343666-23.69005111-57.86586112l2.71853111-545.25952c0-21.74824334-7.57304889-36.3117989-45.24411334-42.3314011h-0.19417998l-108.74121557-18.64135111c-10.48576-1.74762667-17.67044779-11.84502557-15.92281998-22.33078556 1.74762667-10.48576 11.84502557-17.67044779 22.33078441-15.92282112l108.54703447 18.64135111c51.65207666 8.15559111 77.86647666 35.34089443 77.86647665 80.7791889L206.87834073 715.47486775c0 11.45666333 4.27197667 22.13660445 12.42756779 30.09801559 8.15559111 8.15559111 18.83553223 12.62174777 30.29219555 12.62174777h740.41116445c10.67994112 0 19.41807445 8.73813333 19.41807331 19.41807445s-8.54395221 19.41807445-19.22389333 19.41807332z" fill="#151515" p-id="3741"></path><path d="M934.86193738 685.57103445l-685.65219555-2.13598891c-21.55406222-0.19418112-41.74885888-8.54395221-56.89495666-23.88423111-15.14609778-15.3402789-23.30168889-35.53507555-23.30168887-57.08913777l2.13598775-402.73085554L946.90114407 257.5966811c35.14671445 1.35926557 62.72037888 29.90383445 62.72037888 65.05054891V611.00562999c0 41.16631666-33.59326777 74.56540445-74.75958557 74.56540446zM249.59810407 644.59889778l685.45801443 2.13598776c19.80643555 0 35.92343666-16.1170011 35.92343668-35.72925555V322.64723001c0-14.17519445-11.26248334-25.8260389-25.43767668-26.21440002h-0.77672332l-734.58574222-54.75896887-1.74762668 361.17617778c0 11.06830222 4.27197667 21.55406222 12.03920669 29.51547221 7.37886777 7.76723001 17.86462777 12.23338667 29.1271111 12.23338667z" fill="#151515" p-id="3742"></path><path d="M325.13441185 861.11042332m-72.42941667 0a72.42941667 72.42941667 0 1 0 144.85883334 0 72.42941667 72.42941667 0 1 0-144.85883334 0Z" fill="#151515" p-id="3743"></path><path d="M325.13441185 952.95791445c-50.68117333 0-91.84748999-41.16631666-91.84749-91.84749113s41.16631666-91.84748999 91.84749-91.84748999c50.68117333 0 91.84748999 41.16631666 91.84748998 91.84748999s-41.16631666 91.84748999-91.84748998 91.84749113z m0-144.85883335c-29.32129223 0-53.01134222 23.69004999-53.01134223 53.01134222s23.69004999 53.01134222 53.01134223 53.01134222 53.01134222-23.69004999 53.01134223-53.01134222-23.69004999-53.01134222-53.01134223-53.01134222z" fill="#151515" p-id="3744"></path><path d="M881.07387297 861.11042332m-72.42941667 0a72.42941667 72.42941667 0 1 0 144.85883221 0 72.42941667 72.42941667 0 1 0-144.85883221 0Z" fill="#151515" p-id="3745"></path><path d="M881.07387297 952.95791445c-50.68117333 0-91.84748999-41.16631666-91.84749114-91.84749113s41.16631666-91.84748999 91.84749114-91.84748999 91.84748999 41.16631666 91.84748998 91.84748999-41.16631666 91.84748999-91.84748998 91.84749113z m0-144.85883335c-29.32129223 0-53.01134222 23.69004999-53.01134222 53.01134222s23.69004999 53.01134222 53.01134222 53.01134222 53.01134222-23.69004999 53.01134223-53.01134222-23.69004999-53.01134222-53.01134223-53.01134222z" fill="#151515" p-id="3746"></path><path d="M764.56542852 426.33974556H368.8250785c-10.67994112 0-19.41807445-8.73813333-19.41807445-19.41807445s8.73813333-19.41807445 19.41807445-19.41807445h395.74035002c10.67994112 0 19.41807445 8.73813333 19.41807331 19.41807445s-8.73813333 19.41807445-19.41807331 19.41807445zM764.56542852 537.99367111H368.8250785c-10.67994112 0-19.41807445-8.73813333-19.41807445-19.41807445s8.73813333-19.41807445 19.41807445-19.41807332h395.74035002c10.67994112 0 19.41807445 8.73813333 19.41807331 19.41807332s-8.73813333 19.41807445-19.41807331 19.41807445z" fill="#151515" p-id="3747"></path></svg>